<svg width="36" height="36" viewBox="0 0 36 36" fill="none" xmlns="http://www.w3.org/2000/svg">
<path d="M29.625 35.5H6.25C3.075 35.5 0.5 32.925 0.5 29.75V6.25C0.5 3.075 3.075 0.5 6.25 0.5H29.75C32.925 0.5 35.5 3.075 35.5 6.25V29.625C35.5 32.875 32.875 35.5 29.625 35.5ZM6.25 4.5C5.275 4.5 4.5 5.275 4.5 6.25V29.75C4.5 30.725 5.275 31.5 6.25 31.5H29.625C30.65 31.5 31.5 30.65 31.5 29.625V6.25C31.5 5.275 30.725 4.5 29.75 4.5H6.25ZM18 26.75C16.9 26.75 16 25.85 16 24.75V20H11.25C10.15 20 9.25 19.1 9.25 18C9.25 16.9 10.15 16 11.25 16H16V11.25C16 10.15 16.9 9.25 18 9.25C19.1 9.25 20 10.15 20 11.25V16H24.75C25.85 16 26.75 16.9 26.75 18C26.75 19.1 25.85 20 24.75 20H20V24.75C20 25.85 19.1 26.75 18 26.75Z" fill="#1E1103"/>
</svg>
