<svg width="125" height="77" viewBox="0 0 125 77" fill="none" xmlns="http://www.w3.org/2000/svg">
<path d="M50.499 3.59405C42.2402 2.11414 34.4976 0.930224 27.4002 0C26.4969 0.211414 25.5506 0.422829 24.6473 0.634243C15.5282 2.79067 7.09739 5.28536 0 7.82233C1.03235 10.9513 2.1077 14.503 3.26909 18.4776C12.1731 14.7144 23.1418 10.909 35.0998 7.52636C40.4336 6.04645 45.5523 4.73568 50.499 3.59405ZM36.4762 10.6553C40.4336 11.5432 44.4339 12.4735 48.4773 13.4882C53.0368 14.6299 57.4673 15.8138 61.8118 17.04C69.7264 14.4185 77.2539 12.2198 84.1793 10.4862C79.8348 9.47137 75.3183 8.45658 70.7158 7.52636C66.3283 6.59613 62.0268 5.75047 57.8544 4.9471C51.5313 6.427 44.8641 8.20288 37.9387 10.2325C37.4226 10.4016 36.9494 10.5284 36.4762 10.6553ZM32.0888 12.0506C21.7223 15.3487 12.3021 18.9004 4.38745 22.3676C5.84995 27.5262 7.39848 33.1498 8.947 39.154C18.2381 34.2491 29.5939 29.0483 42.1972 24.1435C38.713 19.7461 35.3149 15.687 32.0888 12.0506ZM92.266 12.4312C79.9639 15.5178 65.2099 20.3804 49.6387 26.6382C34.7127 32.6001 21.2491 38.9848 10.4955 44.989C13.5495 57.1665 16.0444 68.2869 17.6789 76.7857C29.895 67.9063 45.4233 58.1813 62.8441 48.7945C86.287 36.1519 108.439 26.6805 125 21.7334C115.924 18.689 104.74 15.5178 92.266 12.4312Z" fill="#4E5B31"/>
</svg>
