<svg width="32" height="32" viewBox="0 0 32 32" fill="none" xmlns="http://www.w3.org/2000/svg">
<path d="M24.4001 25.9999C24.0001 25.9999 23.5801 25.8399 23.2601 25.5399L16.0001 18.2799L8.74013 25.5399C8.12013 26.1599 7.10014 26.1599 6.48014 25.5399C5.86014 24.9199 5.86014 23.8999 6.48014 23.2799L13.7401 16.0199L6.48014 8.75991C5.86014 8.13991 5.86014 7.11991 6.48014 6.49991C7.10014 5.87991 8.12013 5.87991 8.74013 6.49991L16.0001 13.7599L23.2601 6.49991C23.8801 5.87991 24.9001 5.87991 25.5201 6.49991C26.1401 7.11991 26.1401 8.13991 25.5201 8.75991L18.2601 16.0199L25.5201 23.2799C26.1401 23.8999 26.1401 24.9199 25.5201 25.5399C25.2001 25.8599 24.8001 25.9999 24.3801 25.9999H24.4001Z" fill="#131E29"/>
</svg>
