<svg width="33" height="33" viewBox="0 0 33 33" fill="none" xmlns="http://www.w3.org/2000/svg">
<path d="M0 16.5C0 25.32 7.18 32.5 16 32.5L16.02 32.52C23.74 32.52 30.46 27.44 31.98 20.46C32.18 19.6 31.62 18.74 30.76 18.56C30.58 18.52 30.38 18.52 30.2 18.54C29.4 18.42 28.62 18.92 28.42 19.72C26.96 25.38 21.86 29.32 16.02 29.32C8.96 29.32 3.22 23.58 3.22 16.52C3.22 9.46 8.96 3.72 16.02 3.72H16.38C17.26 3.74 18 3.04 18.02 2.16C18.04 1.46 17.6 0.86 17 0.62C16.82 0.54 16.62 0.5 16.4 0.5H16C7.18 0.5 0 7.68 0 16.5Z" fill="#131E29"/>
<path d="M19.26 22.04C19.58 22.34 20 22.5 20.4 22.5C20.82 22.5 21.22 22.36 21.54 22.04C22.16 21.42 22.16 20.4 21.54 19.78L17.2 15.44V8.1C17.2 7.22 16.48 6.5 15.6 6.5C14.72 6.5 14 7.22 14 8.1V16.1C14 16.54 14.16 16.94 14.46 17.24L19.26 22.04Z" fill="#131E29"/>
<path d="M23.6 14.5H30.4C31.28 14.5 32 13.78 32 12.9C32 12.02 31.28 11.3 30.4 11.3H23.6C22.72 11.3 22 12.02 22 12.9C22 13.78 22.72 14.5 23.6 14.5Z" fill="#131E29"/>
<path d="M23.6 9.1H30.4C31.28 9.1 32 8.38 32 7.5C32 6.62 31.28 5.9 30.4 5.9H23.6C22.72 5.9 22 6.62 22 7.5C22 8.38 22.72 9.1 23.6 9.1Z" fill="#131E29"/>
<path d="M23.6 3.7H30.4C31.28 3.7 32 2.98 32 2.1C32 1.22 31.28 0.5 30.4 0.5H23.6C22.72 0.5 22 1.22 22 2.1C22 2.98 22.72 3.7 23.6 3.7Z" fill="#131E29"/>
</svg>
