<svg width="33" height="32" viewBox="0 0 33 32" fill="none" xmlns="http://www.w3.org/2000/svg">
<path d="M31.5401 24.96L19.0201 3.7C17.6801 1.44 14.3201 1.44 13.0001 3.7L0.460111 24.96C-0.859889 27.2 0.800115 30 3.48012 30H28.5401C31.2001 30 32.8801 27.2 31.5601 24.96H31.5401ZM17.4201 25.42C17.0401 25.8 16.5401 26 16.0001 26C15.4601 26 14.9601 25.78 14.5801 25.42C14.2001 25.06 14.0001 24.54 14.0001 24C14.0001 23.46 14.2201 22.96 14.5801 22.58C15.3201 21.84 16.6601 21.84 17.4001 22.58C17.7801 22.96 17.9801 23.46 17.9801 24C17.9801 24.54 17.7601 25.04 17.4001 25.42H17.4201ZM18.0001 17C18.0001 18.1 17.1001 19 16.0001 19C14.9001 19 14.0001 18.1 14.0001 17V11C14.0001 9.9 14.9001 9 16.0001 9C17.1001 9 18.0001 9.9 18.0001 11V17Z" fill="#F53232"/>
</svg>
